Coordinates
version=1
nRows=17
nColumns=36
inDegrees=yes

Units are S.I. units (second, meters, Newtons, ...)
If the header above contains a line with 'inDegrees', this indicates whether rotational values are in degrees (yes) or radians (no).

endheader
time	pelvis_tilt	pelvis_list	pelvis_rotation	pelvis_tx	pelvis_ty	pelvis_tz	hip_flexion_r	hip_adduction_r	hip_rotation_r	knee_angle_r	knee_angle_r_beta	ankle_angle_r	subtalar_angle_r	mtp_angle_r	hip_flexion_l	hip_adduction_l	hip_rotation_l	knee_angle_l	knee_angle_l_beta	ankle_angle_l	subtalar_angle_l	mtp_angle_l	lumbar_extension	lumbar_bending	lumbar_rotation	arm_flex_r	arm_add_r	arm_rot_r	elbow_flex_r	pro_sup_r	arm_flex_l	arm_add_l	arm_rot_l	elbow_flex_l	pro_sup_l
      3.44166670	    -10.52784590	      0.87920369	     -2.68952566	      0.36600375	      0.90735556	     -0.15307236	     10.78783824	     -5.85198843	     -2.93107817	      1.31646023	      0.02297657	      2.02474358	      1.95784765	     -7.49999987	      9.33153637	     -3.77222101	     -7.47469162	      0.28602452	      0.00499207	      3.39247724	     11.29291374	     -7.49999987	     -5.49429859	      1.13546138	      0.16841099	    -14.17015037	    -35.57946336	    -31.78971757	     51.29281869	     73.15926881	    353.76767660	    -41.09818332	    336.55738229	     52.43803098	     60.99114535
      3.44583330	    -10.49939118	      0.81310503	     -2.76853811	      0.36562229	      0.90113715	     -0.15253827	     10.62939389	     -5.67527825	     -2.86351138	      1.21719872	      0.02124413	      2.12154887	      1.85856476	     -7.49999987	      9.18136725	     -3.91402689	     -7.89627923	      0.28714277	      0.00501159	      3.52836217	     11.46192937	     -7.49999987	     -5.35259217	      1.12052930	     -0.02282269	    -14.02167950	    -34.84393534	    -31.31139158	     48.58384599	     72.70551295	    352.88426557	    -40.43487548	    336.68205225	     50.92359881	     61.10883211
      3.45000000	    -10.40713345	      0.82837595	     -2.75654149	      0.36542911	      0.90729520	     -0.15338271	     10.42069569	     -5.62960294	     -3.09189200	      1.12417658	      0.01962058	      2.06073212	      2.16117928	     -7.49999987	      9.03562948	     -3.94146759	     -7.99561337	      0.26115903	      0.00455809	      3.51889269	     11.75314820	     -7.49999987	     -5.49170438	      1.14756872	     -0.15722331	    -13.78665948	    -33.88454947	    -31.22266892	     46.56181175	     72.20382837	    352.35633619	    -39.21153428	    336.92200829	     49.75271514	     61.09990776
      3.45416670	    -10.45523492	      0.82563570	     -2.82381910	      0.36509440	      0.90390793	     -0.15318728	     10.44620242	     -5.57224619	     -3.03760602	      1.06261231	      0.01854608	      2.15791677	      2.15411953	     -7.49999987	      9.03546884	     -3.98633400	     -8.31990788	      0.24638522	      0.00430023	      3.66155769	     12.05704334	     -7.49999987	     -5.33992528	      1.18330433	     -0.20520485	    -13.43222129	    -33.37029346	    -30.66050573	     44.19507818	     71.85822633	    351.64533623	    -38.27422782	    337.90815474	     48.22316663	     61.18050817
      3.45833330	    -11.06382096	      0.88672641	     -2.86358015	      0.36492101	      0.90256898	     -0.15308460	     11.12041841	     -5.54096158	     -2.85551691	      1.06376766	      0.01856625	      2.35026518	      2.02859623	     -7.49999987	      9.67343537	     -3.99531666	     -7.90297420	      0.22605933	      0.00394548	      3.38502845	     11.37748430	     -7.49999987	     -4.64169571	      1.20428498	     -0.20121726	    -14.19127596	    -32.69681240	    -30.64279211	     43.98441784	     71.05689466	    350.13732666	    -37.06044389	    337.78829126	     48.02286709	     61.08508021
      3.46250000	    -10.27710340	      0.79396956	     -2.82064195	      0.36445306	      0.90390488	     -0.15336787	     10.21979667	     -5.47875537	     -3.26221518	      0.93508984	      0.01632040	      2.22029440	      2.13629383	     -7.49999987	      8.82749210	     -4.06678379	     -8.34546500	      0.21505012	      0.00375333	      3.78224814	     12.26166653	     -7.49999987	     -5.72018060	      1.40769447	     -0.25104623	    -12.93734973	    -32.48667748	    -30.40099391	     41.00179488	     70.37960146	    350.45582962	    -36.10996709	    338.26873333	     45.21897769	     61.01715309
      3.46666670	    -10.49505539	      0.80669556	     -2.87284315	      0.36439771	      0.90380598	     -0.15362412	     10.48688977	     -5.47555908	     -3.28766453	      0.92497588	      0.01614387	      2.31798401	      2.21532946	     -7.49999987	      9.05334892	     -4.09098776	     -8.66829486	      0.20599983	      0.00359538	      3.91289966	     12.75478536	     -7.49999987	     -5.33871438	      1.49145133	     -0.12461956	    -12.53109774	    -32.47100143	    -29.53378903	     38.69418871	     70.33057932	    350.27360929	    -35.35144479	    339.18498859	     42.97506884	     61.07802514
      3.47083330	    -10.49758621	      0.85325562	     -2.91978704	      0.36001407	      0.90675532	     -0.15793210	     10.60295370	     -5.61232679	     -3.38090917	      0.92540998	      0.01615145	      2.32384293	      2.31842549	     -7.49999987	      9.12637624	     -3.97282237	     -8.82323750	      0.19790654	      0.00345412	      3.99091756	     12.91697114	     -7.49999987	     -5.60657461	      1.67701097	     -0.14935308	    -12.02971865	    -32.36446248	    -29.17179192	     37.48984803	     69.69032661	    350.05166640	    -34.06309395	    339.29435388	     41.35482746	     60.96395018
      3.47500000	    -10.59068239	      0.86031410	     -2.91886041	      0.36412886	      0.90350689	     -0.15355528	     10.73765115	     -5.61601685	     -3.29833722	      0.89784734	      0.01567039	      2.34813880	      2.19075781	     -7.49999987	      9.22080360	     -3.95543730	     -8.80945207	      0.19148128	      0.00334198	      4.05924531	     12.95796296	     -7.49999987	     -5.49359364	      1.71524043	     -0.16711158	    -12.16500799	    -32.24255401	    -27.99066497	     35.92436626	     69.39402511	    349.38697930	    -33.21675869	    340.43895546	     39.44711331	     60.92300315
      3.47916670	    -11.04935567	      0.84530289	     -2.94567250	      0.36405152	      0.90255256	     -0.15327085	     11.25420095	     -5.57385547	     -3.36298360	      0.88744063	      0.01548876	      2.18960493	      2.18391623	     -7.49999987	      9.70534666	     -3.99944998	     -8.68961453	      0.18839441	      0.00328810	      3.83921664	     12.41961211	     -7.49999987	     -5.11974559	      1.81610665	     -0.14377892	    -13.08719768	    -31.44369786	    -27.75785490	     35.83758825	     68.88406605	    348.01800788	    -32.06712845	    340.42579185	     39.19078084	     60.82755193
      3.48333330	    -10.65873996	      0.80331440	     -3.04241609	      0.36397153	      0.90607709	     -0.15326222	     10.85185009	     -5.52297287	     -3.39520832	      0.87835024	      0.01533010	      2.29974095	      2.11897815	     -7.49999987	      9.26425609	     -4.04615943	     -9.19858673	      0.18458169	      0.00322156	      4.29108227	     13.36111440	     -7.49999987	     -5.59408054	      1.88281781	     -0.14004654	    -12.78735600	    -31.42866650	    -24.55777306	     33.08935254	     68.42481465	    348.23133795	    -31.60110751	    343.08597284	     36.12773677	     60.73261805
      3.48750000	    -10.60100336	      0.79602473	     -3.09249537	      0.36380016	      0.90588978	     -0.15292832	     10.78753816	     -5.47606210	     -3.46062745	      0.85801379	      0.01497517	      2.23408694	      2.18553953	     -7.49999987	      9.17580995	     -4.07678483	     -9.32347317	      0.18121170	      0.00316274	      4.24294209	     13.46957032	     -7.49999987	     -5.82980496	      1.84974685	     -0.18072231	    -13.07928093	    -30.77200148	    -23.92558661	     32.46674816	     67.82809591	    347.87764856	    -30.91025293	    343.23219941	     35.28482634	     60.54356706
      3.49166670	    -11.09586076	      0.81486977	     -3.14534064	      0.36392198	      0.90517973	     -0.15334675	     11.32499483	     -5.43744308	     -3.66801075	      0.82401406	      0.01438176	      1.99127556	      2.30809370	     -7.49999987	      9.71023502	     -4.09628799	     -9.25488338	      0.18043720	      0.00314922	      3.87251157	     13.02782397	     -7.49999987	     -5.37274398	      1.89779161	     -0.15925935	    -13.81897377	    -30.43286771	    -23.69163549	     32.63538401	     67.36939744	    346.87728249	    -30.28226154	    343.08626987	     35.46108113	     60.46014504
      3.49583330	    -10.62954089	      0.74691665	     -3.24595417	      0.36370994	      0.90543654	     -0.15289905	     10.82943245	     -5.36030701	     -3.65665638	      0.82663433	      0.01442749	      2.09156059	      2.41350120	     -7.49999987	      9.17868686	     -4.17065308	     -9.69085530	      0.17828855	      0.00311172	      4.26262832	     13.84099086	     -7.49999987	     -5.99193039	      2.01127331	     -0.07154553	    -13.46361524	    -30.40158097	    -22.21574721	     30.79158019	     67.07726107	    347.15572684	    -29.80514493	    344.12666810	     33.40010557	     60.44391189
      3.50000000	    -10.80501928	      0.74174974	     -3.26705306	      0.36389073	      0.90532219	     -0.15318427	     11.01060635	     -5.34137934	     -3.64968293	      0.82654729	      0.01442597	      2.01541254	      2.39354013	     -7.49999987	      9.36385096	     -4.19646081	     -9.78155488	      0.18059894	      0.00315205	      4.16790400	     13.80328323	     -7.49999987	     -5.65416977	      2.02226049	     -0.02973994	    -13.47665046	    -30.56845921	    -18.42177077	     29.36626858	     66.68087108	    347.06047013	    -29.46176814	    347.94292961	     30.99734485	     60.33924068
      3.50416670	    -10.67169458	      0.68508932	     -3.23536689	      0.36356240	      0.90538393	     -0.15278386	     10.84010124	     -5.29506724	     -3.71504548	      0.78596278	      0.01371764	      1.89697013	      2.29009279	     -7.49999987	      9.23499210	     -4.22918030	     -9.72677046	      0.17625868	      0.00307629	      4.15645396	     13.73589693	     -7.49999987	     -6.02536717	      2.03837853	     -0.42796456	    -14.12053583	    -29.72881180	    -18.02905507	     29.61498704	     66.07586792	    346.11297195	    -28.73968627	    348.24083769	     30.29215377	     60.11808432
      3.50833330	    -10.78960200	      0.68709698	     -3.24243390	      0.36357236	      0.90519353	     -0.15319860	     10.98714079	     -5.31332659	     -3.74464390	      0.79127294	      0.01381032	      2.01505260	      2.55530772	     -7.49999987	      9.36772541	     -4.21935271	     -9.99501953	      0.17316976	      0.00302238	      4.27550561	     14.09896864	     -7.49999987	     -5.89540811	      1.93616151	     -0.57274282	    -14.85607564	    -29.10480528	    -16.18493488	     28.89885566	     65.72120802	    345.98989131	    -28.44658145	    350.36992014	     27.91307380	     59.93596529
